<svg width="481" height="146" viewBox="0 0 481 146" fill="none" xmlns="http://www.w3.org/2000/svg">
<mask id="path-1-inside-1_445_541" fill="white">
<path fill-rule="evenodd" clip-rule="evenodd" d="M480.994 0H0V145.991H419.125L480.994 87.8733V0Z"/>
</mask>
<path d="M0 0V-3H-3V0H0ZM480.994 0H483.994V-3H480.994V0ZM0 145.991H-3V148.991H0V145.991ZM419.125 145.991V148.991H420.313L421.179 148.178L419.125 145.991ZM480.994 87.8733L483.048 90.0599L483.994 89.1712V87.8733H480.994ZM0 3H480.994V-3H0V3ZM3 145.991V0H-3V145.991H3ZM419.125 142.991H0V148.991H419.125V142.991ZM421.179 148.178L483.048 90.0599L478.94 85.6867L417.071 143.805L421.179 148.178ZM477.994 0V87.8733H483.994V0H477.994Z" fill="white" mask="url(#path-1-inside-1_445_541)"/>
<path fill-rule="evenodd" clip-rule="evenodd" d="M464.279 13.5278H16.7129V132.464H403.721L464.279 76.3047V13.5278Z" fill="#720A08"/>
<path d="M54.8466 82.7632L50.2266 74.6032H48.2466V82.7632H44.0466V61.8232H51.9066C53.5266 61.8232 54.9066 62.1132 56.0466 62.6932C57.1866 63.2532 58.0366 64.0232 58.5966 65.0032C59.1766 65.9632 59.4666 67.0432 59.4666 68.2432C59.4666 69.6232 59.0666 70.8732 58.2666 71.9932C57.4666 73.0932 56.2766 73.8532 54.6966 74.2732L59.7066 82.7632H54.8466ZM48.2466 71.4532H51.7566C52.8966 71.4532 53.7466 71.1832 54.3066 70.6432C54.8666 70.0832 55.1466 69.3132 55.1466 68.3332C55.1466 67.3732 54.8666 66.6332 54.3066 66.1132C53.7466 65.5732 52.8966 65.3032 51.7566 65.3032H48.2466V71.4532ZM67.4653 65.2132V70.4632H74.5153V73.7932H67.4653V79.3432H75.4153V82.7632H63.2653V61.7932H75.4153V65.2132H67.4653ZM93.8121 68.1232C93.3321 67.2432 92.6721 66.5732 91.8321 66.1132C90.9921 65.6532 90.0121 65.4232 88.8921 65.4232C87.6521 65.4232 86.5521 65.7032 85.5921 66.2632C84.6321 66.8232 83.8821 67.6232 83.3421 68.6632C82.8021 69.7032 82.5321 70.9032 82.5321 72.2632C82.5321 73.6632 82.8021 74.8832 83.3421 75.9232C83.9021 76.9632 84.6721 77.7632 85.6521 78.3232C86.6321 78.8832 87.7721 79.1632 89.0721 79.1632C90.6721 79.1632 91.9821 78.7432 93.0021 77.9032C94.0221 77.0432 94.6921 75.8532 95.0121 74.3332H87.8121V71.1232H99.1521V74.7832C98.8721 76.2432 98.2721 77.5932 97.3521 78.8332C96.4321 80.0732 95.2421 81.0732 93.7821 81.8332C92.3421 82.5732 90.7221 82.9432 88.9221 82.9432C86.9021 82.9432 85.0721 82.4932 83.4321 81.5932C81.8121 80.6732 80.5321 79.4032 79.5921 77.7832C78.6721 76.1632 78.2121 74.3232 78.2121 72.2632C78.2121 70.2032 78.6721 68.3632 79.5921 66.7432C80.5321 65.1032 81.8121 63.8332 83.4321 62.9332C85.0721 62.0132 86.8921 61.5532 88.8921 61.5532C91.2521 61.5532 93.3021 62.1332 95.0421 63.2932C96.7821 64.4332 97.9821 66.0432 98.6421 68.1232H93.8121ZM106.459 61.8232V82.7632H102.259V61.8232H106.459ZM117.839 82.9732C116.379 82.9732 115.059 82.7232 113.879 82.2232C112.719 81.7232 111.799 81.0032 111.119 80.0632C110.439 79.1232 110.089 78.0132 110.069 76.7332H114.569C114.629 77.5932 114.929 78.2732 115.469 78.7732C116.029 79.2732 116.789 79.5232 117.749 79.5232C118.729 79.5232 119.499 79.2932 120.059 78.8332C120.619 78.3532 120.899 77.7332 120.899 76.9732C120.899 76.3532 120.709 75.8432 120.329 75.4432C119.949 75.0432 119.469 74.7332 118.889 74.5132C118.329 74.2732 117.549 74.0132 116.549 73.7332C115.189 73.3332 114.079 72.9432 113.219 72.5632C112.379 72.1632 111.649 71.5732 111.029 70.7932C110.429 69.9932 110.129 68.9332 110.129 67.6132C110.129 66.3732 110.439 65.2932 111.059 64.3732C111.679 63.4532 112.549 62.7532 113.669 62.2732C114.789 61.7732 116.069 61.5232 117.509 61.5232C119.669 61.5232 121.419 62.0532 122.759 63.1132C124.119 64.1532 124.869 65.6132 125.009 67.4932H120.389C120.349 66.7732 120.039 66.1832 119.459 65.7232C118.899 65.2432 118.149 65.0032 117.209 65.0032C116.389 65.0032 115.729 65.2132 115.229 65.6332C114.749 66.0532 114.509 66.6632 114.509 67.4632C114.509 68.0232 114.689 68.4932 115.049 68.8732C115.429 69.2332 115.889 69.5332 116.429 69.7732C116.989 69.9932 117.769 70.2532 118.769 70.5532C120.129 70.9532 121.239 71.3532 122.099 71.7532C122.959 72.1532 123.699 72.7532 124.319 73.5532C124.939 74.3532 125.249 75.4032 125.249 76.7032C125.249 77.8232 124.959 78.8632 124.379 79.8232C123.799 80.7832 122.949 81.5532 121.829 82.1332C120.709 82.6932 119.379 82.9732 117.839 82.9732ZM143.14 61.8232V65.2132H137.56V82.7632H133.36V65.2132H127.78V61.8232H143.14ZM150.405 65.2132V70.4632H157.455V73.7932H150.405V79.3432H158.355V82.7632H146.205V61.7932H158.355V65.2132H150.405ZM172.972 82.7632L168.352 74.6032H166.372V82.7632H162.172V61.8232H170.032C171.652 61.8232 173.032 62.1132 174.172 62.6932C175.312 63.2532 176.162 64.0232 176.722 65.0032C177.302 65.9632 177.592 67.0432 177.592 68.2432C177.592 69.6232 177.192 70.8732 176.392 71.9932C175.592 73.0932 174.402 73.8532 172.822 74.2732L177.832 82.7632H172.972ZM166.372 71.4532H169.882C171.022 71.4532 171.872 71.1832 172.432 70.6432C172.992 70.0832 173.272 69.3132 173.272 68.3332C173.272 67.3732 172.992 66.6332 172.432 66.1132C171.872 65.5732 171.022 65.3032 169.882 65.3032H166.372V71.4532ZM206.449 82.7632H202.249L192.739 68.3932V82.7632H188.539V61.7932H192.739L202.249 76.1932V61.7932H206.449V82.7632ZM220.319 82.9732C218.359 82.9732 216.559 82.5132 214.919 81.5932C213.279 80.6732 211.979 79.4032 211.019 77.7832C210.059 76.1432 209.579 74.2932 209.579 72.2332C209.579 70.1932 210.059 68.3632 211.019 66.7432C211.979 65.1032 213.279 63.8232 214.919 62.9032C216.559 61.9832 218.359 61.5232 220.319 61.5232C222.299 61.5232 224.099 61.9832 225.719 62.9032C227.359 63.8232 228.649 65.1032 229.589 66.7432C230.549 68.3632 231.029 70.1932 231.029 72.2332C231.029 74.2932 230.549 76.1432 229.589 77.7832C228.649 79.4032 227.359 80.6732 225.719 81.5932C224.079 82.5132 222.279 82.9732 220.319 82.9732ZM220.319 79.2232C221.579 79.2232 222.689 78.9432 223.649 78.3832C224.609 77.8032 225.359 76.9832 225.899 75.9232C226.439 74.8632 226.709 73.6332 226.709 72.2332C226.709 70.8332 226.439 69.6132 225.899 68.5732C225.359 67.5132 224.609 66.7032 223.649 66.1432C222.689 65.5832 221.579 65.3032 220.319 65.3032C219.059 65.3032 217.939 65.5832 216.959 66.1432C215.999 66.7032 215.249 67.5132 214.709 68.5732C214.169 69.6132 213.899 70.8332 213.899 72.2332C213.899 73.6332 214.169 74.8632 214.709 75.9232C215.249 76.9832 215.999 77.8032 216.959 78.3832C217.939 78.9432 219.059 79.2232 220.319 79.2232ZM262.144 61.8232L256.294 82.7632H251.344L247.414 67.8532L243.304 82.7632L238.384 82.7932L232.744 61.8232H237.244L240.934 78.0832L245.194 61.8232H249.874L253.894 77.9932L257.614 61.8232H262.144Z" fill="white"/>
<path d="M432.069 72.9956L417.069 64.3354V81.6559L432.069 72.9956ZM358.248 74.4956H418.569V71.4956H358.248V74.4956Z" fill="white"/>
</svg>
