<svg width="263" height="27" viewBox="0 0 263 27" fill="none" xmlns="http://www.w3.org/2000/svg">
<path d="M13.444 26L7.9 16.208H5.524V26H0.484V0.872H9.916C11.86 0.872 13.516 1.22 14.884 1.916C16.252 2.588 17.272 3.512 17.944 4.688C18.64 5.84 18.988 7.136 18.988 8.576C18.988 10.232 18.508 11.732 17.548 13.076C16.588 14.396 15.16 15.308 13.264 15.812L19.276 26H13.444ZM5.524 12.428H9.736C11.104 12.428 12.124 12.104 12.796 11.456C13.468 10.784 13.804 9.86 13.804 8.684C13.804 7.532 13.468 6.644 12.796 6.02C12.124 5.372 11.104 5.048 9.736 5.048H5.524V12.428ZM28.5865 4.94V11.24H37.0465V15.236H28.5865V21.896H38.1265V26H23.5465V0.835998H38.1265V4.94H28.5865ZM60.2027 8.432C59.6267 7.376 58.8347 6.572 57.8267 6.02C56.8187 5.468 55.6427 5.192 54.2987 5.192C52.8107 5.192 51.4907 5.528 50.3387 6.2C49.1867 6.872 48.2867 7.832 47.6387 9.08C46.9907 10.328 46.6667 11.768 46.6667 13.4C46.6667 15.08 46.9907 16.544 47.6387 17.792C48.3107 19.04 49.2347 20 50.4107 20.672C51.5867 21.344 52.9547 21.68 54.5147 21.68C56.4347 21.68 58.0067 21.176 59.2307 20.168C60.4547 19.136 61.2587 17.708 61.6427 15.884H53.0027V12.032H66.6107V16.424C66.2747 18.176 65.5547 19.796 64.4507 21.284C63.3467 22.772 61.9187 23.972 60.1667 24.884C58.4387 25.772 56.4947 26.216 54.3347 26.216C51.9107 26.216 49.7147 25.676 47.7467 24.596C45.8027 23.492 44.2667 21.968 43.1387 20.024C42.0347 18.08 41.4827 15.872 41.4827 13.4C41.4827 10.928 42.0347 8.72 43.1387 6.776C44.2667 4.808 45.8027 3.284 47.7467 2.204C49.7147 1.1 51.8987 0.547999 54.2987 0.547999C57.1307 0.547999 59.5907 1.244 61.6787 2.636C63.7667 4.004 65.2067 5.936 65.9987 8.432H60.2027ZM75.3795 0.872V26H70.3395V0.872H75.3795ZM89.035 26.252C87.283 26.252 85.699 25.952 84.283 25.352C82.891 24.752 81.787 23.888 80.971 22.76C80.155 21.632 79.735 20.3 79.711 18.764H85.111C85.183 19.796 85.543 20.612 86.191 21.212C86.863 21.812 87.775 22.112 88.927 22.112C90.103 22.112 91.027 21.836 91.699 21.284C92.371 20.708 92.707 19.964 92.707 19.052C92.707 18.308 92.479 17.696 92.023 17.216C91.567 16.736 90.991 16.364 90.295 16.1C89.623 15.812 88.687 15.5 87.487 15.164C85.855 14.684 84.523 14.216 83.491 13.76C82.483 13.28 81.607 12.572 80.863 11.636C80.143 10.676 79.783 9.404 79.783 7.82C79.783 6.332 80.155 5.036 80.899 3.932C81.643 2.828 82.687 1.988 84.031 1.412C85.375 0.812 86.911 0.512 88.639 0.512C91.231 0.512 93.331 1.148 94.939 2.42C96.571 3.668 97.471 5.42 97.639 7.676H92.095C92.047 6.812 91.675 6.104 90.979 5.552C90.307 4.976 89.407 4.688 88.279 4.688C87.295 4.688 86.503 4.94 85.903 5.444C85.327 5.948 85.039 6.68 85.039 7.64C85.039 8.312 85.255 8.876 85.687 9.332C86.143 9.764 86.695 10.124 87.343 10.412C88.015 10.676 88.951 10.988 90.151 11.348C91.783 11.828 93.115 12.308 94.147 12.788C95.179 13.268 96.067 13.988 96.811 14.948C97.555 15.908 97.927 17.168 97.927 18.728C97.927 20.072 97.579 21.32 96.883 22.472C96.187 23.624 95.167 24.548 93.823 25.244C92.479 25.916 90.883 26.252 89.035 26.252ZM119.397 0.872V4.94H112.701V26H107.661V4.94H100.965V0.872H119.397ZM128.114 4.94V11.24H136.574V15.236H128.114V21.896H137.654V26H123.074V0.835998H137.654V4.94H128.114ZM155.194 26L149.65 16.208H147.274V26H142.234V0.872H151.666C153.61 0.872 155.266 1.22 156.634 1.916C158.002 2.588 159.022 3.512 159.694 4.688C160.39 5.84 160.738 7.136 160.738 8.576C160.738 10.232 160.258 11.732 159.298 13.076C158.338 14.396 156.91 15.308 155.014 15.812L161.026 26H155.194ZM147.274 12.428H151.486C152.854 12.428 153.874 12.104 154.546 11.456C155.218 10.784 155.554 9.86 155.554 8.684C155.554 7.532 155.218 6.644 154.546 6.02C153.874 5.372 152.854 5.048 151.486 5.048H147.274V12.428ZM195.367 26H190.327L178.915 8.756V26H173.875V0.835998H178.915L190.327 18.116V0.835998H195.367V26ZM212.011 26.252C209.659 26.252 207.499 25.7 205.531 24.596C203.563 23.492 202.003 21.968 200.851 20.024C199.699 18.056 199.123 15.836 199.123 13.364C199.123 10.916 199.699 8.72 200.851 6.776C202.003 4.808 203.563 3.272 205.531 2.168C207.499 1.064 209.659 0.512 212.011 0.512C214.387 0.512 216.547 1.064 218.491 2.168C220.459 3.272 222.007 4.808 223.135 6.776C224.287 8.72 224.863 10.916 224.863 13.364C224.863 15.836 224.287 18.056 223.135 20.024C222.007 21.968 220.459 23.492 218.491 24.596C216.523 25.7 214.363 26.252 212.011 26.252ZM212.011 21.752C213.523 21.752 214.855 21.416 216.007 20.744C217.159 20.048 218.059 19.064 218.707 17.792C219.355 16.52 219.679 15.044 219.679 13.364C219.679 11.684 219.355 10.22 218.707 8.972C218.059 7.7 217.159 6.728 216.007 6.056C214.855 5.384 213.523 5.048 212.011 5.048C210.499 5.048 209.155 5.384 207.979 6.056C206.827 6.728 205.927 7.7 205.279 8.972C204.631 10.22 204.307 11.684 204.307 13.364C204.307 15.044 204.631 16.52 205.279 17.792C205.927 19.064 206.827 20.048 207.979 20.744C209.155 21.416 210.499 21.752 212.011 21.752ZM262.201 0.872L255.181 26H249.241L244.525 8.108L239.593 26L233.689 26.036L226.921 0.872H232.321L236.749 20.384L241.861 0.872H247.477L252.301 20.276L256.765 0.872H262.201Z" fill="white"/>
</svg>
