<svg width="27" height="27" viewBox="0 0 27 27" fill="none" xmlns="http://www.w3.org/2000/svg">
<path fill-rule="evenodd" clip-rule="evenodd" d="M13.5 26.8453C13.5 26.8453 27 19.5238 27 10.9822C27 8.0695 25.5777 5.27615 23.0459 3.2166C20.5142 1.15704 17.0804 0 13.5 0C9.91958 0 6.4858 1.15704 3.95406 3.2166C1.42232 5.27615 0 8.0695 0 10.9822C0 19.5238 13.5 26.8453 13.5 26.8453ZM18.0014 10.9815C18.0014 13.0033 15.9866 14.6422 13.5014 14.6422C11.0161 14.6422 9.00135 13.0033 9.00135 10.9815C9.00135 8.95974 11.0161 7.32079 13.5014 7.32079C15.9866 7.32079 18.0014 8.95974 18.0014 10.9815Z" fill="#720A08"/>
</svg>
